<?xml version="1.0" encoding="UTF-8"?>
<!DOCTYPE svg PUBLIC "-//W3C//DTD SVG 1.1//EN" "http://www.w3.org/Graphics/SVG/1.1/DTD/svg11.dtd">
<svg xmlns="http://www.w3.org/2000/svg" version="1.1" width="100px" height="100px" style="shape-rendering:geometricPrecision; text-rendering:geometricPrecision; image-rendering:optimizeQuality; fill-rule:evenodd; clip-rule:evenodd" xmlns:xlink="http://www.w3.org/1999/xlink">
<g><path style="opacity:0.961" fill="#f0bb19" d="M 79.5,10.5 C 86.1584,9.34448 88.1584,11.8445 85.5,18C 78.7496,19.4689 76.7496,16.9689 79.5,10.5 Z"/></g>
<g><path style="opacity:0.765" fill="#f0bb17" d="M 75.5,11.5 C 77.337,11.6395 77.6704,12.3061 76.5,13.5C 75.7025,13.0431 75.3691,12.3764 75.5,11.5 Z"/></g>
<g><path style="opacity:0.974" fill="#e5ecb6" d="M 78.5,73.5 C 77.8333,73.5 77.5,73.8333 77.5,74.5C 67.4123,85.0265 55.079,88.8598 40.5,86C 29.4791,83.0176 21.4791,76.5176 16.5,66.5C 19.9157,61.513 18.5824,58.8463 12.5,58.5C 10.8095,26.0234 26.1429,10.8568 58.5,13C 80.274,20.3598 89.4407,35.5265 86,58.5C 84.541,64.0848 82.041,69.0848 78.5,73.5 Z"/></g>
<g><path style="opacity:0.766" fill="#87ad44" d="M 84.5,21.5 C 85.8333,21.5 87.1667,21.5 88.5,21.5C 88.5,22.8333 88.5,24.1667 88.5,25.5C 87.1667,25.5 85.8333,25.5 84.5,25.5C 84.5,24.1667 84.5,22.8333 84.5,21.5 Z"/></g>
<g><path style="opacity:1" fill="#6c89aa" d="M 66.5,27.5 C 68.475,28.6464 69.975,30.313 71,32.5C 71.4999,43.8284 71.6665,55.1618 71.5,66.5C 70.1667,68.5 68.5,70.1667 66.5,71.5C 55.1618,71.6665 43.8284,71.4999 32.5,71C 30.313,69.975 28.6464,68.475 27.5,66.5C 27.0414,54.3991 27.5414,42.3991 29,30.5C 29.9025,29.2986 31.0692,28.4652 32.5,28C 43.8284,27.5001 55.1618,27.3335 66.5,27.5 Z"/></g>
<g><path style="opacity:1" fill="#f9f8ea" d="M 33.5,31.5 C 44.748,31.1793 55.9146,31.5126 67,32.5C 67.6667,43.5 67.6667,54.5 67,65.5C 66.5,66 66,66.5 65.5,67C 54.8333,67.6667 44.1667,67.6667 33.5,67C 33,66.5 32.5,66 32,65.5C 31.3333,54.8333 31.3333,44.1667 32,33.5C 32.7172,32.9558 33.2172,32.2891 33.5,31.5 Z"/></g>
<g><path style="opacity:1" fill="#4b302d" d="M 66.5,27.5 C 55.1618,27.3335 43.8284,27.5001 32.5,28C 31.0692,28.4652 29.9025,29.2986 29,30.5C 27.5414,42.3991 27.0414,54.3991 27.5,66.5C 26.8338,60.8432 26.5005,55.0098 26.5,49C 26.3717,42.3972 26.8717,35.8972 28,29.5C 28.9025,28.2986 30.0692,27.4652 31.5,27C 43.3407,26.1739 55.0073,26.3405 66.5,27.5 Z"/></g>
<g><path style="opacity:1" fill="#4c322e" d="M 66.5,27.5 C 69.2919,27.4521 71.1253,28.7854 72,31.5C 72.8261,43.3407 72.6595,55.0073 71.5,66.5C 71.6665,55.1618 71.4999,43.8284 71,32.5C 69.975,30.313 68.475,28.6464 66.5,27.5 Z"/></g>
<g><path style="opacity:1" fill="#5a4445" d="M 51.5,40.5 C 54.3916,39.9846 57.3916,39.6512 60.5,39.5C 61.8943,41.5819 61.561,43.2486 59.5,44.5C 58.4019,43.603 58.4019,42.7697 59.5,42C 56.8832,41.1785 54.2165,40.6785 51.5,40.5 Z"/></g>
<g><path style="opacity:1" fill="#3383de" d="M 51.5,40.5 C 54.2165,40.6785 56.8832,41.1785 59.5,42C 58.4019,42.7697 58.4019,43.603 59.5,44.5C 59.634,46.2915 59.3007,47.9582 58.5,49.5C 57.3263,50.5137 56.6596,51.847 56.5,53.5C 55.5987,54.2905 54.9321,55.2905 54.5,56.5C 52.9731,56.427 51.9731,57.0937 51.5,58.5C 49.4428,59.892 47.1094,60.5587 44.5,60.5C 42.9549,60.4892 41.6216,60.1558 40.5,59.5C 40.5,58.8333 40.5,58.1667 40.5,57.5C 40.8333,57.5 41.1667,57.5 41.5,57.5C 44.4596,56.968 44.7929,56.3013 42.5,55.5C 41.8333,55.5 41.5,55.1667 41.5,54.5C 42.5149,52.0365 41.5149,50.3698 38.5,49.5C 41.1667,48.1667 41.1667,46.8333 38.5,45.5C 38.3505,44.448 38.5172,43.448 39,42.5C 39.6708,43.2524 40.5041,43.5858 41.5,43.5C 43.5027,45.9819 46.1694,46.9819 49.5,46.5C 49.5,45.1667 49.5,43.8333 49.5,42.5C 49.5,41.1667 50.1667,40.5 51.5,40.5 Z"/></g>
<g><path style="opacity:1" fill="#564449" d="M 41.5,43.5 C 40.5041,43.5858 39.6708,43.2524 39,42.5C 38.5172,43.448 38.3505,44.448 38.5,45.5C 37.2121,43.9652 37.2121,42.2985 38.5,40.5C 39.8549,41.1882 40.8549,42.1882 41.5,43.5 Z"/></g>
<g><path style="opacity:1" fill="#564348" d="M 49.5,42.5 C 49.5,43.8333 49.5,45.1667 49.5,46.5C 46.1694,46.9819 43.5027,45.9819 41.5,43.5C 43.7457,44.4552 46.079,45.1218 48.5,45.5C 48.2627,44.209 48.596,43.209 49.5,42.5 Z"/></g>
<g><path style="opacity:1" fill="#4f444f" d="M 38.5,45.5 C 41.1667,46.8333 41.1667,48.1667 38.5,49.5C 37.3143,48.2946 37.3143,46.9613 38.5,45.5 Z"/></g>
<g><path style="opacity:1" fill="#fcfcf7" d="M 16.5,48.5 C 20.1612,48.3501 21.1612,49.8501 19.5,53C 15.7071,53.4866 14.7071,51.9866 16.5,48.5 Z"/></g>
<g><path style="opacity:1" fill="#564f5d" d="M 38.5,49.5 C 41.5149,50.3698 42.5149,52.0365 41.5,54.5C 39.7497,53.3406 38.7497,51.674 38.5,49.5 Z"/></g>
<g><path style="opacity:1" fill="#968c8c" d="M 58.5,49.5 C 58.8432,51.4832 58.1765,52.8166 56.5,53.5C 56.6596,51.847 57.3263,50.5137 58.5,49.5 Z"/></g>
<g><path style="opacity:1" fill="#513f45" d="M 42.5,55.5 C 44.7929,56.3013 44.4596,56.968 41.5,57.5C 41.8333,56.8333 42.1667,56.1667 42.5,55.5 Z"/></g>
<g><path style="opacity:1" fill="#4f3c3f" d="M 40.5,57.5 C 40.5,58.1667 40.5,58.8333 40.5,59.5C 35.3402,58.2717 35.3402,57.6051 40.5,57.5 Z"/></g>
<g><path style="opacity:1" fill="#6e656c" d="M 54.5,56.5 C 54.0269,57.9063 53.0269,58.573 51.5,58.5C 51.9731,57.0937 52.9731,56.427 54.5,56.5 Z"/></g>
<g><path style="opacity:0.961" fill="#facd5a" d="M 12.5,58.5 C 18.5824,58.8463 19.9157,61.513 16.5,66.5C 10.9334,67.2468 9.10005,64.9134 11,59.5C 11.3826,58.944 11.8826,58.6107 12.5,58.5 Z"/></g>
<g><path style="opacity:1" fill="#604a41" d="M 71.5,66.5 C 71.5,69.8333 69.8333,71.5 66.5,71.5C 68.5,70.1667 70.1667,68.5 71.5,66.5 Z"/></g>
<g><path style="opacity:1" fill="#4c312e" d="M 27.5,66.5 C 28.6464,68.475 30.313,69.975 32.5,71C 43.8284,71.4999 55.1618,71.6665 66.5,71.5C 55.0073,72.6595 43.3407,72.8261 31.5,72C 28.7854,71.1253 27.4521,69.2919 27.5,66.5 Z"/></g>
<g><path style="opacity:0.835" fill="#facf5a" d="M 77.5,74.5 C 77.5,73.8333 77.8333,73.5 78.5,73.5C 79.8333,73.5 81.1667,73.5 82.5,73.5C 82.5,74.8333 82.5,76.1667 82.5,77.5C 81.1667,77.5 79.8333,77.5 78.5,77.5C 78.7373,76.209 78.404,75.209 77.5,74.5 Z"/></g>
<g><path style="opacity:0.766" fill="#87ad44" d="M 22.5,84.5 C 23.8333,84.5 25.1667,84.5 26.5,84.5C 26.5,85.8333 26.5,87.1667 26.5,88.5C 25.1667,88.5 23.8333,88.5 22.5,88.5C 22.5,87.1667 22.5,85.8333 22.5,84.5 Z"/></g>
</svg>
